<svg width="21" height="27" viewBox="0 0 21 27" fill="none" xmlns="http://www.w3.org/2000/svg">
<path fill-rule="evenodd" clip-rule="evenodd" d="M14 14.476C14.1115 5.67048 14.3974 0 20.7168 0L20.8713 14.476L14 14.476ZM6.91537 13.1137C6.91537 14.2228 7.44306 22.6819 7.61037 25.2173C7.77769 27.7528 1.31669 27.482 1.52691 25.031C1.73713 22.58 2.3163 14.2606 2.3163 13.1254C2.3163 12.9807 0 11 0 11L0.382538 0.163011L2 0.148457V7.81001H3.86934V0.163011L5.64353 0.148457L5.76989 7.81001H7.26965V0.163011H9.1964L9.5 11C9.5 11 7.5 12.5 6.90678 13.1137H6.91537ZM13.3506 16.8455V15.8005H20.9013L21 25.2057C20.7898 27.8255 14.9938 27.4151 15.204 25.0194V24.315L16.3966 23.4883C16.3966 23.4883 16.461 20.1203 16.461 19.3518C16.4808 18.7474 16.1742 18.159 15.5989 17.6974C15.0236 17.2357 14.2194 16.9327 13.3378 16.8455H13.3506Z" fill="#90A74C"/>
</svg>
