<svg width="25" height="18" viewBox="0 0 25 18" fill="none" xmlns="http://www.w3.org/2000/svg">
<path fill-rule="evenodd" clip-rule="evenodd" d="M20.4539 12.8071C20.643 12.3131 20.7823 11.8027 20.8699 11.2829L24.2166 11.613C24.2306 12.4152 24.1708 13.2169 24.0379 14.0088L20.4539 12.8071ZM20.9873 8.5621L23.6779 8.07468C23.8719 8.71385 24.0145 9.36655 24.1046 10.0269L21.0139 10.0037C21.031 9.5229 21.0185 9.04151 20.9766 8.5621H20.9873ZM20.6833 6.65626C20.6139 6.53247 20.5419 6.39837 20.4646 6.28747L22.1899 4.91547C22.5294 5.42163 22.8272 5.95281 23.0806 6.5041L20.8113 7.31905C20.7713 7.08695 20.7259 6.86774 20.6726 6.65626H20.6833ZM13.9713 7.46089L18.2433 3.82716C16.6913 2.646 14.6859 1.90326 12.2273 1.90326C4.00594 1.90326 0.109939 9.31 1.88861 15.0559L4.06194 14.6433L4.69127 15.9869L1.45927 17.7019C-2.39939 10.7207 1.45927 0 12.2646 0C15.4326 0 17.9686 0.933577 19.8753 2.42421L21.2379 1.26626L21.7713 2.38553L16.3553 9.71747L13.9713 7.46089ZM12.1606 8.73232C16.2993 8.73232 16.2726 14.847 12.2326 14.847C7.79527 14.847 7.99527 8.73232 12.1499 8.73232H12.1606ZM23.6646 15.6439C23.4384 16.3843 23.1411 17.1027 22.7766 17.7896L18.3659 15.5046C18.9922 15.0893 19.5195 14.5494 19.9126 13.9212L23.6646 15.6439Z" fill="#90A74C"/>
</svg>
