<svg width="47" height="53" viewBox="0 0 47 53" fill="none" xmlns="http://www.w3.org/2000/svg">
<ellipse cx="14.339" cy="39.3485" rx="10.3559" ry="3.21212" fill="#EA5045"/>
<path d="M23.0446 34.5789L23.3513 34.6542L23.3543 34.3385C23.3907 30.5109 23.4756 20.8273 23.4756 11.7602C23.4756 7.86208 24.0358 4.98663 25.347 3.08911C26.6434 1.21314 28.706 0.25 31.8351 0.25C35.6314 0.25 38.0439 2.29807 38.6384 4.34776C38.9349 5.36999 38.7832 6.39195 38.1405 7.19561C37.5177 7.97443 36.4063 8.58182 34.7042 8.76049L33.3658 5.39604L33.3031 5.23844H33.1335C31.9959 5.23844 31.1194 5.45661 30.4521 5.881C29.7814 6.30751 29.3469 6.92638 29.0663 7.67941C28.7874 8.42752 28.6576 9.3148 28.5958 10.2934C28.5386 11.1992 28.5389 12.1993 28.5393 13.2572C28.5393 13.343 28.5393 13.4291 28.5393 13.5156C28.5393 17.0761 28.5287 22.967 28.5181 28.1035C28.5135 30.3575 28.5088 32.4665 28.505 34.1692C28.5002 36.3463 28.4969 37.8595 28.4969 38.1636L28.4969 38.2184C28.4969 38.2187 28.4969 38.2189 28.4969 38.2191C28.4832 43.071 26.7061 46.6903 24.0636 49.1021C21.4169 51.5178 17.8871 52.7355 14.3519 52.7499C10.8167 52.7642 7.29067 51.5752 4.65139 49.1966C2.01639 46.8218 0.25 43.2481 0.25 38.458C0.25 37.3063 1.0674 36.3402 2.54912 35.567C4.0248 34.797 6.09602 34.2557 8.44819 33.9367C13.1503 33.2989 18.8945 33.5594 23.0446 34.5789ZM4.07599 39.0079C4.07599 39.5197 4.50921 39.8927 5.04978 40.1637C5.6116 40.4453 6.39729 40.6729 7.31744 40.8525C9.16231 41.2125 11.6111 41.3911 14.052 41.3897C16.4928 41.3883 18.9419 41.2069 20.7871 40.8405C21.7074 40.6578 22.4935 40.426 23.0557 40.1386C23.5987 39.861 24.0278 39.4808 24.0278 38.9635C24.0278 38.4471 23.5999 38.0639 23.0572 37.782C22.4952 37.4902 21.7092 37.2523 20.7887 37.0632C18.9433 36.6841 16.494 36.4887 14.0526 36.4817C11.6114 36.4748 9.16125 36.6561 7.31475 37.0376C6.39375 37.2278 5.60635 37.4711 5.043 37.7753C4.49348 38.0721 4.07599 38.4735 4.07599 39.0079Z" fill="black" stroke="black" stroke-width="0.5"/>
<path d="M23.8983 44.1667V24.0909H27.5594V34.0504V39.3729L41.8494 24.0909H46.2781L36.893 34.0504L47 44.1667H42.6684L34.3663 36.5578L31.8395 39.3729L29.3128 42.188L27.5594 44.1667H23.8983Z" fill="black"/>
<path d="M12.8566 39.3485C12.9798 38.9104 13.2196 39.1334 14.1453 37.427C14.2276 36.9879 14.339 36.7018 14.339 36.24C14.339 35.1714 14.2037 34.674 13.6418 33.971C12.8314 32.9573 11.9492 32.2938 11.9492 30.9597C11.9492 30.2947 12.338 29.5399 12.6458 28.9606C13.0693 28.1634 13.7587 27.5321 14.1453 27.303" stroke="black" stroke-width="2" stroke-linecap="round" stroke-linejoin="round"/>
<path d="M18.4329 39.3485C18.5561 38.9104 18.7959 39.1334 19.7216 37.427C19.8039 36.9879 19.9153 36.7018 19.9153 36.24C19.9153 35.1714 19.78 34.674 19.218 33.971C18.4077 32.9573 17.5254 32.2938 17.5254 30.9597C17.5254 30.2947 17.9142 29.5399 18.222 28.9606C18.6455 28.1634 19.335 27.5321 19.7216 27.303" stroke="black" stroke-width="2" stroke-linecap="round" stroke-linejoin="round"/>
<path d="M7.58284 39.3485C7.74714 38.9396 8.06682 39.1477 9.30111 37.5551C9.41088 37.1453 9.55934 36.8782 9.55934 36.4472C9.55934 35.4499 9.37899 34.9857 8.62972 34.3295C7.54923 33.3833 6.37289 32.7641 6.37289 31.5189C6.37289 30.8983 6.89133 30.1938 7.3017 29.6531C7.86638 28.9091 8.78562 28.3199 9.30111 28.106" stroke="black" stroke-width="2" stroke-linecap="round" stroke-linejoin="round"/>
</svg>
